<mxfile host="app.diagrams.net" agent="Mozilla/5.0 (Windows NT 10.0; Win64; x64) AppleWebKit/537.36 (KHTML, like Gecko) Chrome/134.0.0.0 Safari/537.36" version="26.1.2">
  <diagram name="Page-1" id="cELCacICJwgPTX0MdGXl">
    <mxGraphModel dx="1793" dy="980" grid="1" gridSize="10" guides="1" tooltips="1" connect="1" arrows="1" fold="1" page="1" pageScale="1" pageWidth="827" pageHeight="1169" math="0" shadow="0">
      <root>
        <mxCell id="0" />
        <mxCell id="1" parent="0" />
        <mxCell id="lz6WJc5E2DO2tutGs0bV-3" style="edgeStyle=orthogonalEdgeStyle;rounded=0;orthogonalLoop=1;jettySize=auto;html=1;" edge="1" parent="1" source="lz6WJc5E2DO2tutGs0bV-1" target="lz6WJc5E2DO2tutGs0bV-2">
          <mxGeometry relative="1" as="geometry" />
        </mxCell>
        <mxCell id="lz6WJc5E2DO2tutGs0bV-5" style="edgeStyle=orthogonalEdgeStyle;rounded=0;orthogonalLoop=1;jettySize=auto;html=1;exitX=0.5;exitY=1;exitDx=0;exitDy=0;entryX=0.5;entryY=0;entryDx=0;entryDy=0;" edge="1" parent="1" source="lz6WJc5E2DO2tutGs0bV-1" target="lz6WJc5E2DO2tutGs0bV-4">
          <mxGeometry relative="1" as="geometry" />
        </mxCell>
        <mxCell id="lz6WJc5E2DO2tutGs0bV-7" style="edgeStyle=orthogonalEdgeStyle;rounded=0;orthogonalLoop=1;jettySize=auto;html=1;exitX=0.5;exitY=1;exitDx=0;exitDy=0;" edge="1" parent="1" source="lz6WJc5E2DO2tutGs0bV-1" target="lz6WJc5E2DO2tutGs0bV-6">
          <mxGeometry relative="1" as="geometry">
            <Array as="points">
              <mxPoint x="435" y="200" />
              <mxPoint x="700" y="200" />
            </Array>
          </mxGeometry>
        </mxCell>
        <mxCell id="lz6WJc5E2DO2tutGs0bV-1" value="&lt;font style=&quot;color: rgb(255, 102, 102); font-size: 22px;&quot;&gt;&lt;b style=&quot;&quot;&gt;&lt;i style=&quot;&quot;&gt;PRINCIPLES OF AGRIBUSINESS MANAGEMENT&lt;/i&gt;&lt;/b&gt;&lt;/font&gt;" style="rounded=1;whiteSpace=wrap;html=1;" vertex="1" parent="1">
          <mxGeometry x="120" y="70" width="630" height="80" as="geometry" />
        </mxCell>
        <mxCell id="lz6WJc5E2DO2tutGs0bV-2" value="&lt;font style=&quot;font-size: 18px;&quot;&gt;&lt;b&gt;&lt;i&gt;PLANNING&lt;/i&gt;&lt;/b&gt;&lt;/font&gt;" style="rounded=1;whiteSpace=wrap;html=1;" vertex="1" parent="1">
          <mxGeometry x="40" y="250" width="160" height="60" as="geometry" />
        </mxCell>
        <mxCell id="lz6WJc5E2DO2tutGs0bV-4" value="&lt;font style=&quot;font-size: 17px;&quot;&gt;&lt;b&gt;&lt;i&gt;ORGANIZING&lt;/i&gt;&lt;/b&gt;&lt;/font&gt;" style="rounded=1;whiteSpace=wrap;html=1;" vertex="1" parent="1">
          <mxGeometry x="357.5" y="250" width="155" height="60" as="geometry" />
        </mxCell>
        <mxCell id="lz6WJc5E2DO2tutGs0bV-6" value="&lt;font style=&quot;font-size: 17px;&quot;&gt;&lt;b&gt;&lt;i&gt;LEADING&lt;/i&gt;&lt;/b&gt;&lt;/font&gt;" style="rounded=1;whiteSpace=wrap;html=1;" vertex="1" parent="1">
          <mxGeometry x="640" y="250" width="120" height="60" as="geometry" />
        </mxCell>
        <mxCell id="lz6WJc5E2DO2tutGs0bV-8" value="&lt;font style=&quot;font-size: 18px;&quot;&gt;&lt;b&gt;&lt;i&gt;CONTROLLING&lt;/i&gt;&lt;/b&gt;&lt;/font&gt;" style="rounded=1;whiteSpace=wrap;html=1;" vertex="1" parent="1">
          <mxGeometry x="200" y="370" width="170" height="60" as="geometry" />
        </mxCell>
        <mxCell id="lz6WJc5E2DO2tutGs0bV-10" value="&lt;font style=&quot;font-size: 18px;&quot;&gt;&lt;b&gt;&lt;i&gt;RISK MANAGEMENT&lt;/i&gt;&lt;/b&gt;&lt;/font&gt;" style="rounded=1;whiteSpace=wrap;html=1;" vertex="1" parent="1">
          <mxGeometry x="512.5" y="370" width="220" height="60" as="geometry" />
        </mxCell>
        <mxCell id="lz6WJc5E2DO2tutGs0bV-12" value="" style="endArrow=none;html=1;rounded=0;exitX=0.357;exitY=-0.033;exitDx=0;exitDy=0;exitPerimeter=0;" edge="1" parent="1" source="lz6WJc5E2DO2tutGs0bV-10">
          <mxGeometry width="50" height="50" relative="1" as="geometry">
            <mxPoint x="540" y="260" as="sourcePoint" />
            <mxPoint x="590" y="200" as="targetPoint" />
          </mxGeometry>
        </mxCell>
        <mxCell id="lz6WJc5E2DO2tutGs0bV-13" value="" style="endArrow=none;html=1;rounded=0;" edge="1" parent="1">
          <mxGeometry width="50" height="50" relative="1" as="geometry">
            <mxPoint x="280" y="370" as="sourcePoint" />
            <mxPoint x="280" y="200" as="targetPoint" />
          </mxGeometry>
        </mxCell>
        <mxCell id="lz6WJc5E2DO2tutGs0bV-16" value="&lt;font style=&quot;font-size: 18px;&quot;&gt;&lt;i style=&quot;&quot;&gt;PLANNING- it help to set goal, identify resources and develope statragies to achive&lt;/i&gt;&lt;/font&gt;&lt;div&gt;&lt;font style=&quot;font-size: 18px;&quot;&gt;&lt;i&gt;ORGANIZING- it help to allocating resources and structuring the business&amp;nbsp; &amp;nbsp; &amp;nbsp; &amp;nbsp; &amp;nbsp; &amp;nbsp; &amp;nbsp; &amp;nbsp;&lt;/i&gt;&lt;/font&gt;&lt;/div&gt;&lt;div&gt;&lt;font style=&quot;font-size: 18px;&quot;&gt;&lt;i&gt;LEADING- focus on motivating and directing employes to achive a goal&amp;nbsp; &amp;nbsp; &amp;nbsp; &amp;nbsp; &amp;nbsp; &amp;nbsp; &amp;nbsp; &amp;nbsp; &amp;nbsp; &amp;nbsp;&lt;/i&gt;&lt;/font&gt;&lt;/div&gt;&lt;div&gt;&lt;font style=&quot;font-size: 18px;&quot;&gt;&lt;i&gt;CONTROLLING- monitoring performance and evelovating result&amp;nbsp; &amp;nbsp; &amp;nbsp; &amp;nbsp; &amp;nbsp; &amp;nbsp; &amp;nbsp; &amp;nbsp; &amp;nbsp; &amp;nbsp; &amp;nbsp; &amp;nbsp; &amp;nbsp; &amp;nbsp; &amp;nbsp;&amp;nbsp;&lt;/i&gt;&lt;/font&gt;&lt;/div&gt;&lt;div&gt;&lt;font style=&quot;font-size: 18px;&quot;&gt;&lt;i style=&quot;&quot;&gt;RISK MANAGEMENT- identify and mitigate potential risk which can impact busniss&lt;/i&gt;&lt;/font&gt;&lt;/div&gt;&lt;div&gt;&lt;font style=&quot;font-size: 18px;&quot;&gt;&lt;i style=&quot;&quot;&gt;&lt;br&gt;&lt;/i&gt;&lt;/font&gt;&lt;/div&gt;" style="rounded=0;whiteSpace=wrap;html=1;" vertex="1" parent="1">
          <mxGeometry x="40" y="520" width="710" height="150" as="geometry" />
        </mxCell>
        <mxCell id="lz6WJc5E2DO2tutGs0bV-24" style="edgeStyle=orthogonalEdgeStyle;rounded=0;orthogonalLoop=1;jettySize=auto;html=1;" edge="1" parent="1" source="lz6WJc5E2DO2tutGs0bV-17" target="lz6WJc5E2DO2tutGs0bV-19">
          <mxGeometry relative="1" as="geometry" />
        </mxCell>
        <mxCell id="lz6WJc5E2DO2tutGs0bV-28" style="edgeStyle=orthogonalEdgeStyle;rounded=0;orthogonalLoop=1;jettySize=auto;html=1;" edge="1" parent="1" source="lz6WJc5E2DO2tutGs0bV-17" target="lz6WJc5E2DO2tutGs0bV-18">
          <mxGeometry relative="1" as="geometry" />
        </mxCell>
        <mxCell id="lz6WJc5E2DO2tutGs0bV-17" value="&lt;font style=&quot;font-size: 17px;&quot;&gt;&lt;b&gt;&lt;i&gt;STRATEGIC DESION- MAKING IN AGRIBUSINESS&lt;/i&gt;&lt;/b&gt;&lt;/font&gt;" style="rounded=0;whiteSpace=wrap;html=1;" vertex="1" parent="1">
          <mxGeometry x="200" y="720" width="420" height="40" as="geometry" />
        </mxCell>
        <mxCell id="lz6WJc5E2DO2tutGs0bV-18" value="SWOT" style="rounded=1;whiteSpace=wrap;html=1;" vertex="1" parent="1">
          <mxGeometry x="80" y="860" width="120" height="60" as="geometry" />
        </mxCell>
        <mxCell id="lz6WJc5E2DO2tutGs0bV-19" value="PESTEL" style="rounded=1;whiteSpace=wrap;html=1;" vertex="1" parent="1">
          <mxGeometry x="350" y="860" width="120" height="60" as="geometry" />
        </mxCell>
        <mxCell id="lz6WJc5E2DO2tutGs0bV-20" value="PORTER&#39;S FORCES" style="rounded=1;whiteSpace=wrap;html=1;" vertex="1" parent="1">
          <mxGeometry x="620" y="860" width="120" height="60" as="geometry" />
        </mxCell>
        <mxCell id="lz6WJc5E2DO2tutGs0bV-26" style="edgeStyle=orthogonalEdgeStyle;rounded=0;orthogonalLoop=1;jettySize=auto;html=1;entryX=0.646;entryY=0;entryDx=0;entryDy=0;entryPerimeter=0;" edge="1" parent="1" source="lz6WJc5E2DO2tutGs0bV-17" target="lz6WJc5E2DO2tutGs0bV-20">
          <mxGeometry relative="1" as="geometry" />
        </mxCell>
        <mxCell id="lz6WJc5E2DO2tutGs0bV-29" value="helps to identify our strength weakness and business oppurtunity and threats" style="ellipse;whiteSpace=wrap;html=1;" vertex="1" parent="1">
          <mxGeometry x="50" y="970" width="180" height="120" as="geometry" />
        </mxCell>
        <mxCell id="lz6WJc5E2DO2tutGs0bV-30" style="edgeStyle=orthogonalEdgeStyle;rounded=0;orthogonalLoop=1;jettySize=auto;html=1;exitX=0.5;exitY=1;exitDx=0;exitDy=0;entryX=0.558;entryY=0.043;entryDx=0;entryDy=0;entryPerimeter=0;" edge="1" parent="1" source="lz6WJc5E2DO2tutGs0bV-18" target="lz6WJc5E2DO2tutGs0bV-29">
          <mxGeometry relative="1" as="geometry" />
        </mxCell>
        <mxCell id="lz6WJc5E2DO2tutGs0bV-31" value="tool used to assess external enviroment of a business, help identify potential oppurtunity and threats&amp;nbsp;" style="ellipse;whiteSpace=wrap;html=1;" vertex="1" parent="1">
          <mxGeometry x="320" y="950" width="180" height="140" as="geometry" />
        </mxCell>
        <mxCell id="lz6WJc5E2DO2tutGs0bV-32" value="encourages organization to look beyond competitors" style="ellipse;whiteSpace=wrap;html=1;" vertex="1" parent="1">
          <mxGeometry x="590" y="952.5" width="200" height="135" as="geometry" />
        </mxCell>
        <mxCell id="lz6WJc5E2DO2tutGs0bV-33" value="&lt;font style=&quot;color: rgb(13, 13, 13);&quot;&gt;&lt;span style=&quot;font-family: &amp;quot;Google Sans&amp;quot;, Arial, sans-serif; font-size: 18px; text-align: start; background-color: rgb(16, 18, 24); color: rgb(238, 240, 255);&quot;&gt;SWOT - analysis is&amp;nbsp;&lt;/span&gt;&lt;mark style=&quot;border-radius: 4px; padding: 0px 2px; font-family: &amp;quot;Google Sans&amp;quot;, Arial, sans-serif; font-size: 18px; text-align: start; background-color: light-dark(#ffffff, var(--ge-dark-color, #121212));&quot; class=&quot;QVRyCf&quot;&gt;a technique for identifying strengths, weaknesses, opportunities, and threats (SWOT) of a business or person&lt;/mark&gt;&lt;/font&gt;&lt;div&gt;&lt;span style=&quot;color: rgb(236, 236, 236); font-family: &amp;quot;Google Sans&amp;quot;, Arial, sans-serif; font-size: 20px; text-align: start; background-color: rgb(16, 18, 24);&quot;&gt;PESTEL- It&amp;nbsp;&lt;/span&gt;&lt;span style=&quot;background-color: light-dark(#ffffff, var(--ge-dark-color, #121212));&quot;&gt;&lt;span style=&quot;background: linear-gradient(90deg, rgb(52, 69, 127) 50%, rgba(0, 0, 0, 0) 50%) 0% 0px / 200% 100% no-repeat rgb(16, 18, 24); color: rgb(255, 255, 255); animation: 0.75s cubic-bezier(0.05, 0.7, 0.1, 1) 0.25s 1 normal forwards running highlight; font-family: &amp;quot;Google Sans&amp;quot;, Arial, sans-serif; font-size: 20px; text-align: start;&quot;&gt;examines the Political, Economic, Social, Technological, Environmental, and Legal factors in the external environment&lt;/span&gt;&lt;span style=&quot;color: rgb(236, 236, 236); font-family: &amp;quot;Google Sans&amp;quot;, Arial, sans-serif; font-size: 20px; text-align: start; background-color: rgb(16, 18, 24);&quot;&gt;.&lt;/span&gt;&lt;/span&gt;&lt;/div&gt;&lt;div&gt;&lt;span style=&quot;color: rgb(236, 236, 236); font-family: &amp;quot;Google Sans&amp;quot;, Arial, sans-serif; font-size: 20px; text-align: start; background-color: rgb(16, 18, 24);&quot;&gt;Porter&#39;s Five Forces include:&amp;nbsp;&lt;span style=&quot;background-image: linear-gradient(90deg, rgb(52, 69, 127) 50%, rgba(0, 0, 0, 0) 50%); background-position: 0% 0px; background-size: 200% 100%; background-repeat: no-repeat; background-attachment: initial; background-origin: initial; background-clip: initial; color: rgb(255, 255, 255); animation: 0.75s cubic-bezier(0.05, 0.7, 0.1, 1) 0.25s 1 normal forwards running highlight;&quot;&gt;Competitive Rivalry, Supplier Power, Buyer Power, Threat of Substitution, and Threat of New Entry&lt;/span&gt;.&lt;/span&gt;&lt;/div&gt;&lt;div&gt;&lt;br&gt;&lt;/div&gt;" style="rounded=1;whiteSpace=wrap;html=1;" vertex="1" parent="1">
          <mxGeometry x="110" y="1160" width="680" height="190" as="geometry" />
        </mxCell>
        <mxCell id="lz6WJc5E2DO2tutGs0bV-35" value="&lt;font style=&quot;font-size: 18px;&quot;&gt;&lt;b&gt;&lt;u&gt;&lt;i&gt;AGRICULTURAL VALUE CHANGE ANALYASIS&lt;/i&gt;&lt;/u&gt;&lt;/b&gt;&lt;/font&gt;" style="rounded=1;whiteSpace=wrap;html=1;" vertex="1" parent="1">
          <mxGeometry x="220" y="1400" width="430" height="60" as="geometry" />
        </mxCell>
        <mxCell id="lz6WJc5E2DO2tutGs0bV-36" value="INPUT" style="rounded=1;whiteSpace=wrap;html=1;" vertex="1" parent="1">
          <mxGeometry x="20" y="1490" width="120" height="60" as="geometry" />
        </mxCell>
        <mxCell id="lz6WJc5E2DO2tutGs0bV-37" value="PRODUCTION" style="rounded=1;whiteSpace=wrap;html=1;" vertex="1" parent="1">
          <mxGeometry x="200" y="1490" width="120" height="60" as="geometry" />
        </mxCell>
        <mxCell id="lz6WJc5E2DO2tutGs0bV-38" value="PROCESSING" style="rounded=1;whiteSpace=wrap;html=1;" vertex="1" parent="1">
          <mxGeometry x="512.5" y="1490" width="120" height="60" as="geometry" />
        </mxCell>
        <mxCell id="lz6WJc5E2DO2tutGs0bV-39" value="COLLETION" style="rounded=1;whiteSpace=wrap;html=1;" vertex="1" parent="1">
          <mxGeometry x="357.5" y="1490" width="120" height="60" as="geometry" />
        </mxCell>
        <mxCell id="lz6WJc5E2DO2tutGs0bV-48" style="edgeStyle=orthogonalEdgeStyle;rounded=0;orthogonalLoop=1;jettySize=auto;html=1;exitX=1;exitY=0.5;exitDx=0;exitDy=0;entryX=1;entryY=0.5;entryDx=0;entryDy=0;" edge="1" parent="1" source="lz6WJc5E2DO2tutGs0bV-40" target="lz6WJc5E2DO2tutGs0bV-42">
          <mxGeometry relative="1" as="geometry" />
        </mxCell>
        <mxCell id="lz6WJc5E2DO2tutGs0bV-40" value="DISTRIBUTION" style="rounded=1;whiteSpace=wrap;html=1;" vertex="1" parent="1">
          <mxGeometry x="670" y="1490" width="120" height="60" as="geometry" />
        </mxCell>
        <mxCell id="lz6WJc5E2DO2tutGs0bV-41" value="RETAIL" style="rounded=1;whiteSpace=wrap;html=1;" vertex="1" parent="1">
          <mxGeometry x="210" y="1600" width="120" height="60" as="geometry" />
        </mxCell>
        <mxCell id="lz6WJc5E2DO2tutGs0bV-49" style="edgeStyle=orthogonalEdgeStyle;rounded=0;orthogonalLoop=1;jettySize=auto;html=1;exitX=0;exitY=0.5;exitDx=0;exitDy=0;entryX=1;entryY=0.5;entryDx=0;entryDy=0;" edge="1" parent="1" source="lz6WJc5E2DO2tutGs0bV-42" target="lz6WJc5E2DO2tutGs0bV-41">
          <mxGeometry relative="1" as="geometry" />
        </mxCell>
        <mxCell id="lz6WJc5E2DO2tutGs0bV-42" value="CONSUMER" style="rounded=1;whiteSpace=wrap;html=1;" vertex="1" parent="1">
          <mxGeometry x="400" y="1600" width="120" height="60" as="geometry" />
        </mxCell>
        <mxCell id="lz6WJc5E2DO2tutGs0bV-44" value="" style="endArrow=classic;html=1;rounded=0;entryX=0;entryY=0.5;entryDx=0;entryDy=0;" edge="1" parent="1" target="lz6WJc5E2DO2tutGs0bV-37">
          <mxGeometry width="50" height="50" relative="1" as="geometry">
            <mxPoint x="140" y="1520" as="sourcePoint" />
            <mxPoint x="190" y="1470" as="targetPoint" />
            <Array as="points" />
          </mxGeometry>
        </mxCell>
        <mxCell id="lz6WJc5E2DO2tutGs0bV-45" value="" style="endArrow=classic;html=1;rounded=0;entryX=0;entryY=0.5;entryDx=0;entryDy=0;exitX=1;exitY=0.5;exitDx=0;exitDy=0;" edge="1" parent="1" source="lz6WJc5E2DO2tutGs0bV-37" target="lz6WJc5E2DO2tutGs0bV-39">
          <mxGeometry width="50" height="50" relative="1" as="geometry">
            <mxPoint x="380" y="1530" as="sourcePoint" />
            <mxPoint x="430" y="1480" as="targetPoint" />
          </mxGeometry>
        </mxCell>
        <mxCell id="lz6WJc5E2DO2tutGs0bV-46" value="" style="endArrow=classic;html=1;rounded=0;exitX=1;exitY=0.5;exitDx=0;exitDy=0;" edge="1" parent="1" source="lz6WJc5E2DO2tutGs0bV-39">
          <mxGeometry width="50" height="50" relative="1" as="geometry">
            <mxPoint x="400" y="1530" as="sourcePoint" />
            <mxPoint x="510" y="1520" as="targetPoint" />
          </mxGeometry>
        </mxCell>
        <mxCell id="lz6WJc5E2DO2tutGs0bV-47" value="" style="endArrow=classic;html=1;rounded=0;entryX=0;entryY=0.5;entryDx=0;entryDy=0;exitX=1;exitY=0.5;exitDx=0;exitDy=0;" edge="1" parent="1" source="lz6WJc5E2DO2tutGs0bV-38" target="lz6WJc5E2DO2tutGs0bV-40">
          <mxGeometry width="50" height="50" relative="1" as="geometry">
            <mxPoint x="380" y="1530" as="sourcePoint" />
            <mxPoint x="430" y="1480" as="targetPoint" />
          </mxGeometry>
        </mxCell>
        <mxCell id="lz6WJc5E2DO2tutGs0bV-50" value="BREIF-&lt;div style=&quot;text-align: center;&quot;&gt;&lt;span style=&quot;color: rgb(238, 240, 255); font-family: &amp;quot;Google Sans&amp;quot;, Arial, sans-serif; font-size: 18px; text-align: start;&quot;&gt;&amp;nbsp;&lt;span style=&quot;background-color: light-dark(#ffffff, var(--ge-dark-color, #121212));&quot;&gt;&lt;mark style=&quot;border-radius: 4px; padding: 0px 2px;&quot; class=&quot;QVRyCf&quot;&gt;examines all activities and actors involved in bringing a product from the farm to the consumer, identifying areas for improvement and value addition, and understanding the dynamics of the entire system&lt;/mark&gt;.&lt;/span&gt;&lt;/span&gt;&lt;span style=&quot;background-color: light-dark(#ffffff, var(--ge-dark-color, #121212)); color: rgb(238, 240, 255); font-family: &amp;quot;Google Sans&amp;quot;, Arial, sans-serif; font-size: 18px; text-align: start;&quot; data-cid=&quot;99e8ca5f-db0c-4966-b5ce-e0f3315c3210&quot; class=&quot;pjBG2e&quot;&gt;&lt;span style=&quot;text-wrap-mode: nowrap;&quot; class=&quot;UV3uM&quot;&gt;&amp;nbsp;&lt;/span&gt;&lt;/span&gt;&lt;/div&gt;" style="ellipse;whiteSpace=wrap;html=1;" vertex="1" parent="1">
          <mxGeometry x="10" y="1714" width="830" height="136" as="geometry" />
        </mxCell>
        <mxCell id="lz6WJc5E2DO2tutGs0bV-51" value="&lt;h2&gt;&lt;i style=&quot;&quot;&gt;MARKITING CHANNELS IN AGRIBUSINESS&lt;/i&gt;&lt;/h2&gt;" style="rounded=1;whiteSpace=wrap;html=1;" vertex="1" parent="1">
          <mxGeometry x="225" y="1900" width="420" height="50" as="geometry" />
        </mxCell>
        <mxCell id="lz6WJc5E2DO2tutGs0bV-52" value="&lt;b&gt;&lt;i&gt;&lt;font style=&quot;font-size: 15px;&quot;&gt;DIRECT MARKETING&lt;/font&gt;&lt;/i&gt;&lt;/b&gt;" style="rounded=1;whiteSpace=wrap;html=1;" vertex="1" parent="1">
          <mxGeometry x="130" y="2010" width="170" height="60" as="geometry" />
        </mxCell>
        <mxCell id="lz6WJc5E2DO2tutGs0bV-53" value="&lt;b&gt;&lt;i&gt;&lt;font style=&quot;font-size: 13px;&quot;&gt;COOPERATIVE MARKETING&lt;/font&gt;&lt;/i&gt;&lt;/b&gt;" style="rounded=1;whiteSpace=wrap;html=1;" vertex="1" parent="1">
          <mxGeometry x="512.5" y="2015" width="187.5" height="50" as="geometry" />
        </mxCell>
        <mxCell id="lz6WJc5E2DO2tutGs0bV-55" style="edgeStyle=orthogonalEdgeStyle;rounded=0;orthogonalLoop=1;jettySize=auto;html=1;exitX=0.5;exitY=1;exitDx=0;exitDy=0;entryX=0.592;entryY=-0.01;entryDx=0;entryDy=0;entryPerimeter=0;" edge="1" parent="1" source="lz6WJc5E2DO2tutGs0bV-51" target="lz6WJc5E2DO2tutGs0bV-52">
          <mxGeometry relative="1" as="geometry" />
        </mxCell>
        <mxCell id="lz6WJc5E2DO2tutGs0bV-56" style="edgeStyle=orthogonalEdgeStyle;rounded=0;orthogonalLoop=1;jettySize=auto;html=1;exitX=0.5;exitY=1;exitDx=0;exitDy=0;entryX=0.582;entryY=0.036;entryDx=0;entryDy=0;entryPerimeter=0;" edge="1" parent="1" source="lz6WJc5E2DO2tutGs0bV-51" target="lz6WJc5E2DO2tutGs0bV-53">
          <mxGeometry relative="1" as="geometry" />
        </mxCell>
        <mxCell id="lz6WJc5E2DO2tutGs0bV-57" value="&lt;div style=&quot;text-align: start;&quot;&gt;&lt;br&gt;&lt;/div&gt;&lt;span style=&quot;color: rgb(238, 240, 255); font-family: &amp;quot;Google Sans&amp;quot;, Arial, sans-serif; text-align: start; background-color: rgb(16, 18, 24);&quot;&gt;&lt;font&gt;Direct marketing in agribusiness&amp;nbsp;&lt;mark style=&quot;border-radius: 4px; padding: 0px 2px;&quot; class=&quot;QVRyCf&quot;&gt;involves farmers selling their products directly to consumers, bypassing traditional intermediaries like distributors and retailers, allowing them to capture a larger share of the consumer food&lt;/mark&gt;&lt;/font&gt;&lt;/span&gt;&lt;div&gt;&lt;span style=&quot;color: rgb(238, 240, 255); font-family: &amp;quot;Google Sans&amp;quot;, Arial, sans-serif; text-align: start; background-color: rgb(16, 18, 24);&quot;&gt;&lt;mark style=&quot;border-radius: 4px; padding: 0px 2px;&quot; class=&quot;QVRyCf&quot;&gt;&lt;font&gt;&lt;br&gt;&lt;span style=&quot;color: rgb(238, 240, 255); background-color: rgb(16, 18, 24);&quot;&gt;Cooperative marketing in agribusiness&amp;nbsp;&lt;mark style=&quot;border-radius: 4px; padding: 0px 2px;&quot; class=&quot;QVRyCf&quot;&gt;involves farmers joining forces to market their products collectively, aiming to improve bargaining power, reduce costs, and ensure a better return on their produce&lt;/mark&gt;&lt;/span&gt;&lt;/font&gt;&lt;/mark&gt;&lt;/span&gt;&lt;/div&gt;" style="ellipse;whiteSpace=wrap;html=1;" vertex="1" parent="1">
          <mxGeometry x="81" y="2070" width="710" height="220" as="geometry" />
        </mxCell>
        <mxCell id="lz6WJc5E2DO2tutGs0bV-59" value="&lt;font style=&quot;font-size: 16px;&quot;&gt;&lt;b&gt;&lt;i&gt;&lt;u&gt;BREIF&lt;/u&gt;&lt;/i&gt;&lt;/b&gt;&lt;/font&gt;:-" style="rounded=1;whiteSpace=wrap;html=1;" vertex="1" parent="1">
          <mxGeometry x="377.5" y="2090" width="80" height="40" as="geometry" />
        </mxCell>
      </root>
    </mxGraphModel>
  </diagram>
</mxfile>
